<svg xmlns="http://www.w3.org/2000/svg" width="101" height="150" fill="none" viewBox="0 0 101 150"><g clip-path="url(#clip0_2627_5881)"><path fill="url(#paint0_linear_2627_5881)" d="M0 101.547H40.4528V122C40.4528 133.046 31.4985 142 20.4528 142H20C8.9543 142 0 133.046 0 122V101.547Z"/><path fill="url(#paint1_linear_2627_5881)" d="M0 54.7737H81.1321C92.1778 54.7737 101.132 63.728 101.132 74.7737V75.2265C101.132 86.2722 92.1778 95.2265 81.1321 95.2265H0V54.7737Z"/><path fill="url(#paint2_linear_2627_5881)" d="M0 28C0 16.9543 8.95431 8 20 8H81.1321C92.1778 8 101.132 16.9543 101.132 28V28.4528C101.132 39.4985 92.1778 48.4528 81.1321 48.4528H0V28Z"/><mask id="mask0_2627_5881" style="mask-type:alpha" width="102" height="134" x="0" y="8" maskUnits="userSpaceOnUse"><path fill="url(#paint3_linear_2627_5881)" d="M0 101.547H40.4528V122C40.4528 133.046 31.4985 142 20.4528 142H20C8.9543 142 0 133.046 0 122V101.547Z"/><path fill="url(#paint4_linear_2627_5881)" d="M0 54.7737H81.1321C92.1778 54.7737 101.132 63.728 101.132 74.7737V75.2265C101.132 86.2722 92.1778 95.2265 81.1321 95.2265H0V54.7737Z"/><path fill="url(#paint5_linear_2627_5881)" d="M0 28C0 16.9543 8.95431 8 20 8H81.1321C92.1778 8 101.132 16.9543 101.132 28V28.4528C101.132 39.4985 92.1778 48.4528 81.1321 48.4528H0V28Z"/></mask><g mask="url(#mask0_2627_5881)"><g filter="url(#filter0_d_2627_5881)"><mask id="mask1_2627_5881" style="mask-type:alpha" width="102" height="134" x="0" y="8" maskUnits="userSpaceOnUse"><path fill="#000" fill-opacity=".1" d="M0 101.547H40.4528V122C40.4528 133.046 31.4985 142 20.4528 142H20C8.9543 142 0 133.046 0 122V101.547Z"/><path fill="#000" fill-opacity=".1" d="M0 28C0 16.9543 8.95431 8 20 8H81.1321C92.1778 8 101.132 16.9543 101.132 28V28.4528C101.132 39.4985 92.1778 48.4528 81.1321 48.4528H0V28Z"/><path fill="#000" fill-opacity=".1" d="M0 54.7737H81.1321C92.1778 54.7737 101.132 63.728 101.132 74.7737V75.2265C101.132 86.2722 92.1778 95.2265 81.1321 95.2265H0V54.7737Z"/></mask><g mask="url(#mask1_2627_5881)"><path fill="#000" fill-opacity=".1" d="M2.12216 -26.8434C17.9685 -42.3091 58.1507 -26.8434 58.1507 -26.8434H2.12216C-1.76989 -23.0449 -4.19388 -17.3804 -4.19388 -9.16251C-4.19388 32.5141 40.9522 47.6695 40.9522 76.7169C40.9522 105.152 -2.3106 122.695 -4.13455 161.333H58.1507C58.1507 161.333 -4.19388 204.273 -4.19388 163.859C-4.19388 163.007 -4.17382 162.165 -4.13455 161.333H-31.604L-26.2295 -26.8434H2.12216Z"/></g></g><g filter="url(#filter1_f_2627_5881)"><circle cx="-12.641" cy="124.302" r="37.925" fill="#00C4B8"/></g><g filter="url(#filter2_f_2627_5881)"><circle cx="-12.641" cy="28.227" r="37.925" fill="#00C4B8"/></g></g></g><defs><filter id="filter0_d_2627_5881" width="82.151" height="158" x="-2" y="-4" color-interpolation-filters="sRGB" filterUnits="userSpaceOnUse"><feFlood flood-opacity="0" result="BackgroundImageFix"/><feColorMatrix in="SourceAlpha" result="hardAlpha" type="matrix" values="0 0 0 0 0 0 0 0 0 0 0 0 0 0 0 0 0 0 127 0"/><feOffset dx="10"/><feGaussianBlur stdDeviation="6"/><feComposite in2="hardAlpha" operator="out"/><feColorMatrix type="matrix" values="0 0 0 0 0 0 0 0 0 0 0 0 0 0 0 0 0 0 0.25 0"/><feBlend in2="BackgroundImageFix" mode="normal" result="effect1_dropShadow_2627_5881"/><feBlend in="SourceGraphic" in2="effect1_dropShadow_2627_5881" mode="normal" result="shape"/></filter><filter id="filter1_f_2627_5881" width="115.849" height="115.849" x="-70.566" y="66.377" color-interpolation-filters="sRGB" filterUnits="userSpaceOnUse"><feFlood flood-opacity="0" result="BackgroundImageFix"/><feBlend in="SourceGraphic" in2="BackgroundImageFix" mode="normal" result="shape"/><feGaussianBlur result="effect1_foregroundBlur_2627_5881" stdDeviation="10"/></filter><filter id="filter2_f_2627_5881" width="115.849" height="115.849" x="-70.566" y="-29.698" color-interpolation-filters="sRGB" filterUnits="userSpaceOnUse"><feFlood flood-opacity="0" result="BackgroundImageFix"/><feBlend in="SourceGraphic" in2="BackgroundImageFix" mode="normal" result="shape"/><feGaussianBlur result="effect1_foregroundBlur_2627_5881" stdDeviation="10"/></filter><linearGradient id="paint0_linear_2627_5881" x1="40.629" x2="-.003" y1="121.041" y2="121.205" gradientUnits="userSpaceOnUse"><stop stop-color="#00E6CA"/><stop offset="1" stop-color="#00C4B8"/></linearGradient><linearGradient id="paint1_linear_2627_5881" x1="101.572" x2="0" y1="74.267" y2="75.293" gradientUnits="userSpaceOnUse"><stop stop-color="#00E6CA"/><stop offset="1" stop-color="#00C4B8"/></linearGradient><linearGradient id="paint2_linear_2627_5881" x1="101.572" x2="0" y1="27.494" y2="28.52" gradientUnits="userSpaceOnUse"><stop stop-color="#00E6CA"/><stop offset="1" stop-color="#00C4B8"/></linearGradient><linearGradient id="paint3_linear_2627_5881" x1="40.629" x2="-.003" y1="121.041" y2="121.205" gradientUnits="userSpaceOnUse"><stop stop-color="#00FFE1"/><stop offset="1" stop-color="#01E0C6"/></linearGradient><linearGradient id="paint4_linear_2627_5881" x1="101.572" x2="0" y1="74.267" y2="75.293" gradientUnits="userSpaceOnUse"><stop stop-color="#00FFE1"/><stop offset="1" stop-color="#01E0C6"/></linearGradient><linearGradient id="paint5_linear_2627_5881" x1="101.572" x2="0" y1="27.494" y2="28.52" gradientUnits="userSpaceOnUse"><stop stop-color="#00FFE1"/><stop offset="1" stop-color="#01E0C6"/></linearGradient><clipPath id="clip0_2627_5881"><rect width="101" height="150" fill="#fff"/></clipPath></defs></svg>